Patient4_TMGait_0pt2_02_left_05_EMG.mot
version=1
nRows=26
nColumns=33
inDegrees=no
endheader
time	1LAddLong	2LGlutMax	3LGlutMed	4LIliopsoas	5LSemiMemb	6LBicFemLong	7LRecFem	8LVastMed	9LVastLat	10LGasMed	11LTibAnt	12lTibPost	13LPeroneusLong	14LSol	15LExtDigLong	16LFlexDigLong	17RAddLong	18RGlutMax	19RGlutMed	20RIliopsoas	21RSemiMemb	22RBicFemLong	23RRecFem	24RVastMed	25RVastLat	26RGasMed	27RTibAnt	28RTibPost	29RPeroneusLong	30RSol	31RExtDigLong	32RFlexDigLong
11.13	0.009918	-0.042877	0.016785	0.0354	0.014648	0.028687	-0.024872	0.010223	-0.023651	0.009155	-0.091705	0.018005	-0.061951	-0.046387	0.052795	-0.005951	0.090485	-0.13077	0.19486	0.02533	-0.027161	-0.039673	0.34561	-0.16876	-0.26672	-0.027618	0.00885	0.2092	0.93506	-0.54886	0.002899	-0.003815
11.131	0.014801	-0.051422	0.018768	0.018158	0.019073	0.023041	-0.050659	0.005341	-0.027008	-0.005798	-0.11948	0.012817	-0.043945	-0.0737	-0.18188	-0.00885	0.024567	-0.064545	0.87021	0.027466	-0.078888	0.04303	0.076599	-0.24323	-0.31784	-0.006409	-0.047607	-0.050812	2.7066	-0.40619	0.003357	-0.013275
11.132	0.015869	-0.041656	0.011292	0.017242	0.010681	0.033569	-0.070496	0.010986	-0.016632	-0.004578	0.019379	0.014801	-0.031586	-0.026855	-0.23987	0.002594	0.048218	-0.17624	0.19714	0.16632	0.07309	0.13718	-0.33783	0.10086	-0.16373	-0.013123	0.008087	-0.13306	0.87814	-0.1648	0.004272	-0.009003
11.133	0.016785	-0.021973	0.010529	0.00946	0.018311	0.030975	-0.058441	0.011292	-0.022583	0.014343	-0.2005	0.007172	-0.049591	-0.023651	-0.26215	0.005341	0.075531	-0.2002	-0.60959	0.12787	0.17731	0.11246	-0.63721	0.4007	0.015564	0.001068	0.075531	0.021057	0.74966	-0.15381	0.002136	-0.013123
11.134	0.017853	-0.012054	0.020905	0.009613	0.015411	0.034332	-0.005798	0.009613	-0.02182	-0.006256	-0.18402	0.011597	-0.012817	-0.014954	-0.17517	0.002136	0.085297	-0.074005	-0.54886	-0.006561	-0.00824	0.046692	-0.50995	0.58929	0.028229	0.003815	-0.17746	0.10407	0.76324	-0.37033	0.003815	-0.005493
11.135	0.011749	-0.027924	0.005798	-0.005951	0.004883	0.045624	0.025482	0.014191	-0.005798	-0.010223	-0.03952	0.007324	-0.019836	0.014038	0.16876	0.004272	0.074463	-0.09201	-0.23422	-0.072632	-0.13901	0.03006	-0.32898	0.85892	0.059357	-0.005951	-0.16083	-0.29022	-0.80872	-0.21011	0.002747	0.002289
11.136	0.018158	-0.016327	0.024261	0.005951	0.014496	0.06012	-0.001831	0.005341	-0.0177	-0.007477	-0.052032	0.00885	-0.05661	-0.045471	-0.17578	-0.000153	0.033569	-0.03067	-1.1797	0.021667	-0.046082	0.075378	-0.37674	0.84808	0.21103	-0.014038	0.007477	0.0737	-0.54916	0.4982	0.003815	-0.001678
11.137	0.013885	-0.016327	0.045471	-0.002441	0.015259	0.03891	-0.006866	0.00473	-0.015869	-0.006104	-0.077057	0.013428	-0.063629	-0.093536	-0.17792	-0.003357	0.000763	-0.058289	-0.50491	0.09552	-0.10925	0.00061	-0.51224	0.50476	0.33341	-0.005035	-0.031128	0.30533	0.7811	0.66788	0.005646	-0.002747
11.138	0.014343	-0.005035	0.017242	0.016022	0.016937	0.050354	-0.019073	0.008392	-0.019836	0.014343	0.006256	0.007629	-0.082397	-0.088806	0.17258	0.00351	0.007324	-0.04776	0.50842	0.14786	-0.28412	-0.14786	-0.49713	0.29724	0.40237	-0.008087	-0.17471	0.087738	0.10162	0.5481	0.001831	-0.007782
11.139	0.016327	-0.010834	-0.064697	0.040436	0.019226	0.038757	-0.024109	0.008545	-0.021973	0.022278	0.16037	0.006561	-0.15243	-0.076141	0.27115	-0.009003	0.004578	-0.14923	1.4677	-0.006561	-0.086823	-0.1712	-0.39276	0.099792	0.33875	-0.000305	-0.12161	0.027008	-0.061646	0.26062	0.000763	-0.000458
11.14	0.009003	-0.02121	-0.1088	0.016632	0.017395	0.023346	-0.044556	0.000916	-0.01236	0.01358	0.080872	0.005493	-0.12253	-0.058594	0.098724	-0.002136	0.017548	-0.21088	1.5512	-0.050964	0.047607	-0.21042	-0.44067	-0.075531	0.29862	0.006409	-0.12054	-0.001526	0.51773	0.23102	-0.000458	-0.00351
11.141	0.013733	-0.01358	-0.019989	-0.046692	0.023041	0.022278	-0.081024	0.002899	-0.016785	0.010986	0.090637	0.001831	-0.10483	-0.017853	0.16373	-0.004425	-0.01236	-0.28641	0.40222	0.010834	0.18738	-0.064545	-0.46051	-0.51437	0.11581	0.006256	-0.06897	-0.020752	0.15808	0.21225	0.009766	0.000763
11.142	0.009155	-0.022125	-0.005951	-0.023651	0.031128	0.010529	-0.094147	0.008087	-0.005341	0.015564	0.10574	0.002747	-0.10773	0.02655	0.54718	0.005493	0.011139	-0.26489	-0.75333	0.1062	0.14923	0.071259	-0.16312	-0.12634	-0.036011	-0.010071	-0.051575	-0.033417	-0.30289	0.21286	0.00351	-0.006409
11.143	0.012817	0.030518	0.00946	-0.010376	0.032349	0.012054	-0.11429	-0.000458	-0.004883	0.004883	-0.074768	0.009613	-0.11063	0.054932	0.078125	0.006256	-0.029602	-0.11307	-0.9079	0.055237	-0.26657	0.12482	-0.007477	0.70145	-0.26916	-0.010834	0.000305	-0.035248	0.14542	0.25497	0.007629	-0.007629
11.144	0.01709	-0.007172	0.053406	-0.020447	0.034485	-0.000153	-0.084534	0.004883	-0.011292	-0.004425	-0.13947	0.004425	-0.079193	0.071411	0.26703	0.013275	-0.092621	-0.12039	-0.18265	0.051575	-0.40283	0.11368	0.12482	2.1199	-0.38864	-0.001831	0.014496	-0.028076	0.21744	0.1889	0.003662	-0.00885
11.145	0.021057	-0.010376	0.15366	0.002136	0.030823	-0.005035	-0.10239	-0.003204	0.00473	-0.018921	0.15472	0.007172	-0.072174	0.083466	-0.18982	0	-0.06958	-0.092468	0.23529	0.054779	-0.46982	0.000305	0.045929	1.5799	-0.26154	0.002899	-0.000458	-0.02182	-0.11139	0.14862	0.00412	-0.00412
11.146	0.018768	0.008087	0.040894	0.006409	0.022736	-0.000305	-0.075684	-0.006561	-0.023651	-0.028687	0.20752	0.006104	-0.026703	0.066681	-0.20721	0.008392	-0.096893	-0.071106	0.43259	0.014648	-0.10346	0.065765	-0.13153	0.63461	0.075684	0.00946	-0.006561	-0.024872	-0.72586	0.11902	0.00351	-0.014648
11.147	0.014038	-0.029755	0.015411	0.002136	0.031281	0.000153	-0.029297	-0.003662	-0.014801	0.006409	0.13336	0.00351	-0.03952	0.008087	-0.20905	-0.017242	-0.12024	-0.082092	0.5275	-0.12909	0.27481	0.050812	-0.15091	-0.24597	0.30106	0.012054	-0.01709	-0.019684	-0.65353	0.055389	0.003052	-0.013885
11.148	0.017395	-0.020599	0.044708	-0.006561	0.020752	0.006409	-0.014038	0.001221	-0.023041	0.009613	0.015259	-0.001984	-0.027618	-0.00473	-0.24124	-0.015717	-0.1358	-0.046997	-0.2562	-0.11261	0.2504	0.083313	-0.34714	-1.0919	0.33264	0.014191	0.015564	-0.025482	0.46921	0.054016	0.005493	-0.009918
11.149	0.032806	-0.020599	0.077057	0.007782	0.036926	0.008087	0.001984	0.001831	-0.032349	0.002594	-0.09491	0.00473	-0.034027	0.019379	-0.2562	-0.000458	-0.13001	-0.037537	-0.6311	-0.064087	0.21683	0.11414	-0.40237	-1.8021	0.057526	0.005035	0.032501	-0.023499	0.73715	-0.039368	0.007629	-0.005798
11.15	0.017853	-0.026093	0.039978	0.019073	0.026398	0.031281	-0.006866	-0.007629	-0.034485	-0.013123	-0.07309	0.004272	-0.029297	-0.006256	0.22903	-0.003967	-0.13947	0.008392	-0.5693	-0.045471	0.13458	0.097504	-0.21347	-1.779	-0.44495	-0.00061	-0.049438	-0.017242	0.42145	-0.047455	0.002899	-0.009155
11.151	0.014343	-0.021667	0.020294	0.027924	0.023651	0.023651	0.010529	0.00946	-0.032959	-0.015106	-0.086212	0.001373	-0.045471	-0.00824	0.34302	0.001984	-0.12253	-0.008392	-0.51102	-0.027313	0.17258	0.095215	0.023193	-1.0249	-0.48889	-0.002899	-0.067291	-0.022888	-0.026398	0.070496	0.007935	-0.014343
11.152	0.018005	-0.027924	0.03006	0.040436	0.026703	0.030975	0.005646	0.003967	-0.036469	-0.01358	0.034332	0.007324	-0.041199	-0.00885	0.10071	0.00412	-0.054321	0.005798	-0.41931	-0.06897	0.15503	0.09552	0.044098	-0.89462	-0.042877	-0.003052	-0.027466	-0.020447	-0.20584	0.031586	0.004272	0.002594
11.153	0.00885	-0.017853	0.008545	0.020447	0.02243	0.057678	0.016022	0.006561	-0.028687	-0.011597	0.15747	0.007172	-0.077362	0.016174	0.17197	0.004578	0.007019	0.006409	0.063019	-0.090027	0.014496	0.027771	0.070343	-0.87219	0.026245	0.00061	-0.029144	-0.018005	-0.4425	-0.071106	0.003662	-0.001984
11.154	0.014191	-0.033112	0.0177	0.007782	0.027161	0.049896	0.011292	-0.016785	-0.037079	-0.013428	0.054779	0.010071	-0.064545	0.08194	0.059967	-0.002594	0.027618	0.033569	-0.093994	-0.029297	-0.11826	-0.040131	-0.023041	-0.33402	0.069275	-0.010376	0.019531	-0.014191	-0.15701	0.041656	0.009308	-0.000305
11.155	0.01709	-0.023804	0.010681	-0.002594	0.033722	0.044861	0.023651	0.007172	-0.019684	-0.000305	-0.098267	0.008087	-0.065155	0.075836	-0.57953	-0.010529	0.016479	0.053253	-0.023346	-0.02182	-0.098267	-0.000763	-0.053253	0.033112	0.12253	-0.009003	0.039368	-0.014343	-0.36118	0.057831	0.006409	-0.00061
